<?xml version="1.0" encoding="UTF-8"?>
<svg xmlns="http://www.w3.org/2000/svg" width="140" height="49" viewBox="0 0 140 49" fill="none">
  <g clip-path="url(#clip0_29516_9086)">
    <path d="M55.1577 29.0861C55.4032 29.6221 54.886 30.1906 54.3239 30.0029L43.7314 26.4616C43.3763 26.3429 43.1856 25.9609 43.3053 25.6085L47.1248 14.3682C47.3214 13.7897 48.1302 13.7489 48.3848 14.3046L55.1577 29.0861Z" fill="#E76A24"></path>
    <path d="M14.6363 40.9019L11.5988 20.1202C11.571 19.9299 11.6266 19.7368 11.7514 19.5897L24.5571 4.51074L30.1066 28.1575C30.166 28.4102 30.0738 28.6743 29.8694 28.8363L14.6363 40.9019Z" fill="#E76A24"></path>
    <path d="M1.20612 32.7759C0.728126 33.3545 -0.201651 32.8432 0.039133 32.1341L10.7471 0.601843C10.8667 0.249597 11.2514 0.0602802 11.6062 0.178976L24.5574 4.51055L1.20612 32.7759Z" fill="#F2842F"></path>
    <path d="M14.6367 40.9012L36.0942 48.0736C36.4474 48.1916 36.8303 48.0047 36.9518 47.6551L48.4024 14.69C48.6258 14.0464 47.8555 13.5178 47.3279 13.9528L14.6367 40.9012Z" fill="#F2842F"></path>
    <path d="M75.0543 10.4893C76.3186 10.4893 77.2516 11.0624 77.8533 12.2128L83.7707 23.448H83.9283V11.1924C83.9283 10.8041 84.2454 10.4893 84.6366 10.4893H90.4781C90.8695 10.4893 91.1867 10.8041 91.1867 11.1924V36.2102C91.1867 36.6794 91.0533 37.0801 90.7907 37.4049C90.5281 37.7295 90.1727 37.8937 89.7244 37.8937H86.2145C85.0026 37.8937 84.0696 37.3206 83.4153 36.1702L76.4316 24.2697H76.274V37.1907C76.274 37.5789 75.9568 37.8937 75.5657 37.8937H69.7242C69.333 37.8937 69.0156 37.5789 69.0156 37.1907V12.1727C69.0156 11.7038 69.1489 11.3069 69.4116 10.9782C69.6742 10.6536 70.0296 10.4893 70.4779 10.4893H75.0543Z" fill="#2E2A27"></path>
    <path d="M109.573 10.4893C114.545 10.4893 117.029 12.9183 117.029 17.7723V21.0591C117.029 21.8928 116.912 22.6704 116.674 23.3879C116.435 24.1053 116.064 24.7306 115.551 25.2677C115.038 25.8009 114.379 26.2217 113.579 26.5183C112.776 26.8189 111.81 26.9672 110.68 26.9672H104.289C103.789 26.9672 103.449 27.0836 103.264 27.3199C103.078 27.5564 102.989 27.9091 102.989 28.3783V30.0617C102.989 30.4786 103.159 30.687 103.502 30.687H115.929C116.32 30.687 116.637 31.0018 116.637 31.3901V37.1867C116.637 37.5749 116.32 37.8897 115.929 37.8897H99.5153C97.1484 37.8897 95.9648 36.6913 95.9648 34.2905V27.793C95.9648 25.7327 96.4858 24.1454 97.5241 23.0351C98.5621 21.9248 100.291 21.3717 102.71 21.3717H108.704C109.573 21.3717 110.005 20.9027 110.005 19.9608V19.1391C110.005 18.1491 109.532 17.652 108.583 17.652H97.772C97.3806 17.652 97.0635 17.3372 97.0635 16.9488V11.1924C97.0635 10.8041 97.3806 10.4893 97.772 10.4893H109.573Z" fill="#2E2A27"></path>
    <path d="M139.826 12.9466V16.949C139.826 17.3373 139.509 17.6521 139.117 17.6521H129.845C129.449 17.6521 129.251 17.8766 129.251 18.3175V37.1867C129.251 37.5752 128.934 37.89 128.543 37.89H122.503C122.112 37.89 121.795 37.5752 121.795 37.1867V12.9144C121.795 11.295 122.611 10.4854 124.239 10.4854H139.114C139.505 10.4854 139.822 10.7995 139.823 11.1874L139.826 12.9466Z" fill="#2E2A27"></path>
    <path d="M137.536 25.0229C137.956 24.5726 137.634 23.8414 137.016 23.8418L131.446 23.8456C131.055 23.8458 130.738 24.1606 130.738 24.5488V30.5123C130.738 31.1517 131.529 31.4593 131.966 30.9902L137.536 25.0229Z" fill="#2E2A27"></path>
  </g>
  <defs>
    <clipPath id="clip0_29516_9086">
      <rect width="140" height="48" fill="white" transform="translate(0 0.143555)"></rect>
    </clipPath>
  </defs>
</svg>
